<svg width="1440" height="1014" viewBox="0 0 1440 1014" fill="none" xmlns="http://www.w3.org/2000/svg">
<g opacity="0.8" clip-path="url(#clip0_1672_391)" filter="url(#filter0_f_1672_391)">
<path d="M645.285 85.1898C695.556 205.08 751.425 333.826 926.195 304.975C1040 291.625 1143.88 230.996 1257.43 215.371C1351.25 219.848 1395.77 129.725 1374.19 46.6034C1359.99 -140.484 1152.55 -175.181 1003.27 -127.671C924.048 -93.9384 844.163 -148.373 767.054 -117.164C723.029 -100.046 627.981 40.1026 645.285 85.1898Z" fill="#E1306C"/>
<path d="M640.034 87.0516C651.277 113.837 662.635 140.747 675.738 166.707C688.532 191.996 702.9 216.655 720.85 238.673C737.978 260.229 759.121 278.257 783.109 291.757C809.472 306.083 839.2 313.156 869.185 314.412C887.134 315.054 905.103 313.949 922.838 311.113C934.089 309.492 945.399 308.04 956.62 305.933C968.332 303.747 979.974 301.159 991.539 298.291C1037.41 286.769 1081.76 270.245 1126.52 255.188C1148.67 247.692 1170.97 240.497 1193.51 234.426C1204.93 231.349 1216.4 228.539 1227.99 226.185C1238.86 223.965 1250.5 220.926 1261.68 221.156C1295.55 221.887 1328.38 209.161 1351.21 183.837C1373.19 159.482 1383.8 126.822 1385.11 94.4271C1385.45 85.855 1385.11 77.2694 1384.1 68.7498C1383.58 64.4038 1382.9 60.0938 1382.05 55.82C1381.02 51.6781 1380.21 47.4844 1379.63 43.2568C1378.19 26.1971 1374.86 9.34934 1369.7 -6.97705C1360.45 -35.9251 1344.38 -62.2304 1322.86 -83.6806C1301.86 -104.054 1276.97 -119.987 1249.69 -130.529C1221.1 -141.673 1191.03 -148.56 1160.44 -150.973C1128.87 -153.616 1097.09 -152.546 1065.77 -147.785C1050.17 -145.463 1034.73 -142.264 1019.5 -138.203C1011.91 -136.282 1004.43 -133.941 997.101 -131.189C988.922 -128.017 980.45 -125.657 971.809 -124.143C937.926 -118.312 903.82 -124.592 870.207 -129.011C836.595 -133.43 801.157 -135.924 768.447 -123.716C747.814 -116.001 731.789 -98.8897 717.716 -82.6118C698.548 -60.3778 681.637 -36.2914 667.233 -10.7078C654.77 11.2481 642.589 35.4706 638.635 60.683C637.285 69.3511 636.906 78.6926 640.034 87.0516C642.56 93.7779 653.073 90.0756 650.54 83.3283C650.249 82.5082 649.951 81.6671 649.66 80.847L649.369 79.6248C649.369 79.6248 649.445 80.3077 649.227 79.2252C648.934 77.2599 648.746 75.2803 648.663 73.295C648.641 68.915 649.099 64.5459 650.029 60.2663C652.256 49.2393 655.697 38.4938 660.291 28.2267C671.534 2.45839 685.564 -21.9992 702.129 -44.7087C716.653 -65.1226 733.208 -85.8776 752.253 -101.408C755.748 -104.279 759.445 -106.894 763.315 -109.234C764.18 -109.73 765.024 -110.219 765.904 -110.672L766.219 -110.784L767.54 -111.394C770.66 -112.666 773.98 -113.843 777.279 -115.012C793.04 -119.876 809.492 -122.124 825.981 -121.668C859.213 -121.327 891.749 -113.473 924.812 -111.274C941.734 -109.863 958.767 -110.626 975.494 -113.544C991.744 -116.675 1006.85 -123.306 1022.79 -127.582C1052.3 -135.424 1082.61 -139.924 1113.13 -140.997C1143.32 -142.251 1173.56 -139.634 1203.09 -133.21C1231.26 -127.223 1258.21 -116.464 1282.76 -101.398C1319.42 -78.7947 1346.65 -43.6527 1359.39 -2.49544C1364.1 13.3037 1367.17 29.5426 1368.57 45.9673C1369.02 50.164 1370.44 54.3004 1371.22 58.4485C1372.01 62.5967 1372.59 66.7203 1373.05 70.8886C1373.94 79.0858 1374.21 87.338 1373.86 95.575C1373.2 111.301 1369.9 126.802 1364.09 141.427C1352.77 169.535 1331.57 192.881 1302.82 203.379C1295.29 206.125 1287.48 208.006 1279.53 208.984C1270.04 210.191 1260.46 209.233 1251.05 210.65C1228.4 214.204 1205.98 219.122 1183.92 225.376C1139.4 237.747 1096.15 254.117 1052.3 268.592C1030.34 275.852 1008.23 282.649 985.77 288.217C963.782 293.404 941.548 297.484 919.151 300.443C887.397 305.14 854.444 304.985 823.272 296.174C797.813 288.838 774.344 275.824 754.629 258.11C734.725 240.454 718.577 218.981 704.741 196.358C690.402 172.214 677.704 147.132 666.734 121.282C661.205 108.685 655.881 96.0628 650.54 83.3283C647.784 76.7545 637.256 80.4147 640.034 87.0516Z" fill="#E1306C"/>
</g>
<g opacity="0.8" clip-path="url(#clip1_1672_391)" filter="url(#filter1_f_1672_391)">
<path d="M1191.06 -22.6027C1206.85 106.437 1225.63 245.521 1401.66 265.256C1514.81 283.338 1631.26 253.226 1744.77 269.048C1833.85 298.856 1901.19 224.225 1903.01 138.367C1940.19 -45.5387 1749.99 -135.308 1593.41 -130.158C1508.01 -119.226 1445.93 -193.323 1363.24 -184.245C1316.22 -179.737 1186.66 -70.6956 1191.06 -22.6027Z" fill="#FFDC80"/>
<path d="M1185.49 -22.2385C1189.03 6.59398 1192.65 35.578 1198.21 64.1222C1203.64 91.9361 1210.77 119.573 1222.06 145.64C1232.68 171.04 1248.13 194.136 1267.55 213.647C1289.03 234.598 1315.71 249.485 1344.23 258.842C1361.33 264.339 1378.92 268.159 1396.76 270.25C1408.02 271.748 1419.3 273.424 1430.68 274.446C1442.54 275.526 1454.45 276.2 1466.36 276.583C1513.63 277.96 1560.8 274.113 1607.97 271.787C1631.32 270.593 1654.75 269.731 1678.09 270.015C1689.91 270.157 1701.71 270.57 1713.5 271.453C1724.57 272.271 1736.6 272.512 1747.29 275.77C1779.69 285.678 1814.74 282.355 1843.6 264.191C1871.36 246.724 1890.45 218.177 1900.52 187.358C1903.17 179.2 1905.18 170.846 1906.52 162.372C1907.21 158.05 1907.72 153.716 1908.06 149.371C1908.2 145.106 1908.56 140.851 1909.15 136.624C1912.4 119.814 1913.78 102.696 1913.25 85.5826C1912.21 55.2095 1903.9 25.5288 1889.02 -0.963424C1874.35 -26.2778 1854.73 -48.3748 1831.33 -65.936C1806.85 -84.4307 1779.78 -99.2311 1751.01 -109.865C1721.34 -120.99 1690.47 -128.597 1659.03 -132.529C1643.39 -134.532 1627.65 -135.652 1611.89 -135.883C1604.07 -136.097 1596.24 -135.876 1588.43 -135.22C1579.7 -134.39 1570.91 -134.421 1562.18 -135.313C1527.99 -138.91 1496.87 -154.223 1465.73 -167.611C1434.58 -180.999 1401.15 -193.031 1366.36 -190.172C1344.4 -188.355 1324.33 -176.243 1306.36 -164.403C1281.87 -148.215 1259.05 -129.632 1238.24 -108.926C1220.28 -91.1837 1201.97 -71.1834 1191.31 -47.9947C1187.66 -40.02 1184.76 -31.133 1185.49 -22.2385C1186.1 -15.079 1197.22 -15.7846 1196.62 -22.9664C1196.56 -23.8346 1196.5 -24.7251 1196.44 -25.5933L1196.5 -26.8487C1196.5 -26.8487 1196.38 -26.1707 1196.47 -27.2717C1196.72 -29.2427 1197.08 -31.1989 1197.54 -33.1321C1198.71 -37.3533 1200.33 -41.4334 1202.39 -45.2991C1207.53 -55.3059 1213.77 -64.7115 1220.98 -73.3438C1238.8 -95.0864 1258.95 -114.81 1281.06 -132.163C1300.59 -147.861 1322.16 -163.335 1344.71 -173.105C1348.85 -174.918 1353.12 -176.43 1357.48 -177.63C1358.45 -177.872 1359.39 -178.113 1360.36 -178.311L1360.7 -178.333L1362.14 -178.561C1365.48 -178.936 1369 -179.166 1372.49 -179.395C1388.98 -179.793 1405.42 -177.485 1421.17 -172.565C1453.06 -163.205 1482.23 -146.804 1513.45 -135.701C1529.36 -129.744 1545.96 -125.849 1562.85 -124.111C1579.33 -122.708 1595.67 -124.985 1612.17 -124.768C1642.71 -124.292 1673.1 -120.387 1702.76 -113.124C1732.16 -106.124 1760.54 -95.3892 1787.22 -81.1807C1812.7 -67.7619 1835.71 -50.085 1855.25 -28.9127C1884.39 2.8044 1901.04 44.0237 1902.11 87.094C1902.35 103.577 1900.89 120.041 1897.78 136.228C1897.07 140.388 1897.31 144.754 1896.93 148.959C1896.56 153.165 1896.01 157.292 1895.32 161.429C1893.94 169.559 1891.96 177.573 1889.38 185.404C1884.47 200.359 1877.08 214.379 1867.52 226.876C1848.98 250.849 1822.24 267.556 1791.72 269.844C1783.73 270.441 1775.7 270.127 1767.78 268.907C1758.32 267.491 1749.36 263.964 1739.92 262.771C1717.15 260.035 1694.24 258.675 1671.31 258.698C1625.1 258.503 1579.03 262.502 1532.9 264.515C1509.8 265.535 1486.67 266.065 1463.54 265.32C1440.97 264.336 1418.47 262.219 1396.11 258.98C1364.27 254.87 1332.6 245.764 1305 228.813C1282.49 214.834 1263.44 195.931 1249.29 173.526C1234.93 151.125 1225.22 126.072 1218.06 100.539C1210.82 73.4074 1205.42 45.8184 1201.89 17.9599C1199.99 4.33441 1198.3 -9.25964 1196.62 -22.9664C1195.75 -30.0417 1184.62 -29.3806 1185.49 -22.2385Z" fill="#FFDC80"/>
</g>
<g opacity="0.5" clip-path="url(#clip2_1672_391)" filter="url(#filter2_f_1672_391)">
<path d="M-308.488 587.754C-405.392 825.361 -508.235 1082.42 -363.916 1213.88C-275.81 1307.96 -143.077 1318.34 -52.6853 1408.6C3.2332 1510.29 129.376 1414.77 205.154 1263.43C397.972 957.5 301.119 694.016 153.154 617.367C65.4357 589.973 72.4874 424.488 -11.1411 395.291C-58.1315 377.528 -271.007 500.014 -308.488 587.754Z" fill="#1DA1F2"/>
<path d="M-313.899 585.354C-335.541 638.45 -357.243 691.858 -376.791 745.547C-395.813 797.877 -413.136 850.816 -425.288 903.252C-437.474 954.14 -443.249 1003.58 -442.294 1048.84C-440.692 1097.78 -429.081 1138.81 -411.021 1171.04C-400.091 1190.16 -387.263 1206.58 -372.718 1220.06C-363.683 1228.89 -354.791 1238.05 -345.25 1246.09C-335.305 1254.51 -324.974 1262.22 -314.388 1269.43C-272.247 1297.77 -225.685 1316.79 -180.447 1338.51C-158.008 1349.19 -135.795 1360.49 -114.645 1373.78C-103.927 1380.51 -93.4675 1387.71 -83.4265 1395.73C-73.9887 1403.25 -63.1656 1410.27 -56.1785 1421.91C-35.039 1457.24 -0.0375588 1470.55 42.0929 1454.13C82.6188 1438.35 124.754 1398.16 160.585 1348.99C170.059 1335.97 179.111 1322.25 187.656 1307.95C192.015 1300.66 196.226 1293.25 200.289 1285.73C204.095 1278.23 208.1 1270.88 212.288 1263.7C229.776 1235.66 245.812 1206.04 260.102 1175.39C285.368 1120.93 303.372 1063.72 312.597 1008.56C320.996 955.601 322.086 905.645 315.801 861.669C309.321 815.439 297.29 774.351 280.091 739.718C262.498 703.721 240.767 673.311 215.343 649.109C202.74 636.988 189.283 626.38 175.036 617.334C168.048 612.667 160.678 608.769 152.962 605.659C144.24 602.346 136.206 597.473 128.976 591.109C100.741 565.993 85.4369 521.776 68.4439 480.957C51.4508 440.138 31.1978 400.477 -3.16467 386.484C-24.8548 377.68 -53.7082 388.173 -80.3979 399.336C-116.817 414.641 -153.775 435.11 -190.727 460.444C-222.505 482.083 -256.547 507.54 -286.332 542.844C-296.566 554.991 -306.898 569.168 -313.899 585.354C-319.526 598.387 -308.721 603.229 -303.076 590.156C-302.378 588.584 -301.663 586.973 -300.966 585.401L-299.835 583.202C-299.835 583.202 -300.522 584.344 -299.495 582.436C-297.562 579.077 -295.547 575.802 -293.457 572.624C-288.742 565.774 -283.728 559.427 -278.504 553.696C-265.155 538.757 -251.324 525.484 -237.264 514.118C-202.159 485.306 -166.666 461.35 -131.417 442.678C-99.9705 425.522 -66.8399 409.886 -37.7379 404.905C-32.3752 403.959 -27.1574 403.615 -22.1248 403.875C-21.0294 403.975 -19.9555 404.065 -18.8958 404.246L-18.5712 404.39L-17.0569 404.773C-13.6632 405.941 -10.2431 407.458 -6.84471 408.966C8.61293 417.295 21.6938 430.399 31.8787 447.755C53.0284 481.834 65.6153 526.919 84.6486 563.724C94.0831 583.006 105.936 599.012 119.917 611.35C133.821 622.872 150.761 627.784 165.699 637.21C193.278 654.784 217.76 678.363 238.683 707.503C259.588 736.029 276.338 770.626 288.525 810.452C300.302 848.223 306.132 892.192 305.764 940.461C305.096 1012.7 284.78 1094.96 248.588 1171.97C234.575 1201.34 219.033 1229.76 202.204 1256.77C197.962 1263.76 194.414 1271.64 190.443 1278.9C186.471 1286.15 182.398 1293.17 178.195 1300.13C169.919 1313.81 161.182 1326.94 152.059 1339.42C134.653 1363.27 115.777 1384.09 96.2252 1401.03C58.542 1433.41 19.6094 1448.4 -10.343 1435.73C-18.1823 1432.42 -25.2735 1427.46 -31.4798 1420.95C-38.9224 1413.26 -44.0961 1402.09 -51.7175 1394.8C-70.2227 1377.48 -90.0476 1362.51 -111.084 1349.99C-153.273 1324.33 -198.954 1306.18 -242.978 1284.48C-265.032 1273.63 -286.692 1261.9 -307.246 1247.9C-327.084 1233.79 -345.887 1217.71 -363.584 1199.71C-389.217 1174.97 -410.386 1141.47 -421.057 1096.27C-429.621 1059.13 -430.765 1015.16 -424.404 967.646C-418.227 920.035 -405.497 870.266 -390.027 821.038C-373.242 768.933 -354.381 717.022 -333.571 665.658C-323.549 640.443 -313.368 615.396 -303.076 590.156C-297.761 577.128 -308.531 572.205 -313.899 585.354Z" fill="#1DA1F2"/>
</g>
<g opacity="0.8" clip-path="url(#clip3_1672_391)" filter="url(#filter3_f_1672_391)">
<path d="M-369.124 706.316C-354.842 822.999 -337.865 948.764 -178.689 966.61C-76.3748 982.96 28.9255 955.731 131.571 970.038C212.116 996.992 273.008 929.508 274.654 851.871C308.272 685.576 136.286 604.404 -5.29664 609.06C-82.5222 618.946 -138.66 551.944 -213.43 560.153C-255.948 564.229 -373.101 662.829 -369.124 706.316Z" fill="#6370F5"/>
<path d="M-139.801 551.015C-136.6 577.087 -133.329 603.295 -128.307 629.106C-123.389 654.256 -116.946 679.246 -106.737 702.817C-97.1298 725.785 -83.1608 746.669 -65.6045 764.312C-46.1842 783.257 -22.0526 796.719 3.73142 805.18C19.1935 810.15 35.1015 813.604 51.231 815.495C61.4199 816.849 71.6193 818.365 81.9011 819.289C92.6308 820.265 103.397 820.875 114.166 821.221C156.911 822.467 199.569 818.988 242.216 816.884C263.335 815.805 284.515 815.026 305.621 815.282C316.315 815.411 326.985 815.784 337.643 816.583C347.65 817.323 358.532 817.54 368.199 820.486C397.49 829.445 429.19 826.441 455.284 810.016C480.39 794.221 497.649 768.408 506.753 740.54C509.154 733.164 510.969 725.61 512.183 717.947C512.803 714.039 513.267 710.12 513.575 706.192C513.698 702.334 514.026 698.487 514.558 694.665C517.496 679.465 518.739 663.986 518.264 648.511C517.327 621.047 509.814 594.208 496.356 570.253C483.086 547.363 465.346 527.382 444.192 511.502C422.051 494.778 397.579 481.395 371.558 471.78C344.728 461.72 316.814 454.841 288.385 451.286C274.246 449.475 260.017 448.462 245.765 448.253C238.689 448.059 231.608 448.26 224.554 448.853C216.657 449.603 208.705 449.575 200.813 448.769C169.895 445.516 141.759 431.669 113.595 419.563C85.4314 407.457 55.2066 396.578 23.7419 399.163C3.89145 400.806 -14.2589 411.758 -30.5064 422.464C-52.6502 437.102 -73.2852 453.906 -92.1071 472.629C-108.349 488.672 -124.901 506.757 -134.538 527.725C-137.844 534.936 -140.469 542.972 -139.801 551.015C-139.256 557.489 -129.198 556.851 -129.744 550.357C-129.795 549.572 -129.848 548.767 -129.899 547.982L-129.853 546.846C-129.853 546.846 -129.954 547.459 -129.878 546.464C-129.65 544.682 -129.327 542.913 -128.911 541.165C-127.854 537.348 -126.382 533.658 -124.521 530.163C-119.873 521.114 -114.237 512.609 -107.717 504.804C-91.6006 485.143 -73.3811 467.308 -53.3844 451.617C-35.729 437.422 -16.2221 423.43 4.1677 414.595C7.91458 412.956 11.7743 411.589 15.7172 410.504C16.5917 410.285 17.446 410.067 18.3231 409.888L18.6249 409.869L19.9244 409.662C22.9524 409.323 26.1304 409.115 29.2884 408.908C44.1989 408.548 59.0679 410.635 73.3053 415.084C102.14 423.548 128.522 438.378 156.753 448.418C171.133 453.804 186.142 457.326 201.415 458.898C216.325 460.166 231.098 458.108 246.019 458.304C273.631 458.734 301.109 462.266 327.934 468.833C354.517 475.162 380.181 484.869 404.303 497.717C427.347 509.851 448.15 525.835 465.816 544.98C492.165 573.66 507.222 610.932 508.193 649.878C508.405 664.783 507.091 679.67 504.273 694.307C503.63 698.069 503.848 702.017 503.511 705.819C503.174 709.622 502.671 713.354 502.047 717.094C500.805 724.446 499.011 731.693 496.679 738.774C492.242 752.297 485.559 764.974 476.913 776.275C460.151 797.952 435.97 813.059 408.37 815.128C401.145 815.668 393.882 815.383 386.72 814.28C378.173 813 370.066 809.811 361.531 808.732C340.946 806.258 320.23 805.028 299.497 805.049C257.711 804.873 216.052 808.488 174.336 810.309C153.449 811.231 132.532 811.71 111.621 811.037C91.2129 810.147 70.8619 808.233 50.6449 805.304C21.8585 801.588 -6.77911 793.354 -31.7399 778.026C-52.0917 765.385 -69.3163 748.293 -82.119 728.033C-95.1003 707.777 -103.875 685.123 -110.355 662.036C-116.9 637.502 -121.786 612.555 -124.979 587.364C-126.694 575.043 -128.226 562.751 -129.744 550.357C-130.526 543.959 -140.587 544.557 -139.801 551.015Z" fill="#6370F5"/>
</g>
<defs>
<filter id="filter0_f_1672_391" x="348.311" y="-539.689" width="1323.51" height="1188.79" filterUnits="userSpaceOnUse" color-interpolation-filters="sRGB">
<feFlood flood-opacity="0" result="BackgroundImageFix"/>
<feBlend mode="normal" in="SourceGraphic" in2="BackgroundImageFix" result="shape"/>
<feGaussianBlur stdDeviation="119.844" result="effect1_foregroundBlur_1672_391"/>
</filter>
<filter id="filter1_f_1672_391" x="935.633" y="-464.324" width="1229.51" height="1023.05" filterUnits="userSpaceOnUse" color-interpolation-filters="sRGB">
<feFlood flood-opacity="0" result="BackgroundImageFix"/>
<feBlend mode="normal" in="SourceGraphic" in2="BackgroundImageFix" result="shape"/>
<feGaussianBlur stdDeviation="119.844" result="effect1_foregroundBlur_1672_391"/>
</filter>
<filter id="filter2_f_1672_391" x="-752.879" y="139.121" width="1427.02" height="1538.71" filterUnits="userSpaceOnUse" color-interpolation-filters="sRGB">
<feFlood flood-opacity="0" result="BackgroundImageFix"/>
<feBlend mode="normal" in="SourceGraphic" in2="BackgroundImageFix" result="shape"/>
<feGaussianBlur stdDeviation="82.4395" result="effect1_foregroundBlur_1672_391"/>
</filter>
<filter id="filter3_f_1672_391" x="-345.131" y="171.869" width="1070.56" height="883.868" filterUnits="userSpaceOnUse" color-interpolation-filters="sRGB">
<feFlood flood-opacity="0" result="BackgroundImageFix"/>
<feBlend mode="normal" in="SourceGraphic" in2="BackgroundImageFix" result="shape"/>
<feGaussianBlur stdDeviation="98.0654" result="effect1_foregroundBlur_1672_391"/>
</filter>
<clipPath id="clip0_1672_391">
<rect width="719.161" height="497.766" fill="white" transform="translate(588 -59.7649) rotate(-19.5147)"/>
</clipPath>
<clipPath id="clip1_1672_391">
<rect width="719.161" height="497.766" fill="white" transform="translate(1175.32 -177.67) rotate(-3.74436)"/>
</clipPath>
<clipPath id="clip2_1672_391">
<rect width="763.975" height="983.637" fill="white" transform="translate(-189.061 304) rotate(23.9272)"/>
</clipPath>
<clipPath id="clip3_1672_391">
<rect width="650.294" height="450.1" fill="white" transform="translate(-149 410.467) rotate(-3.74436)"/>
</clipPath>
</defs>
</svg>
