<svg width="70" height="90" viewBox="0 0 70 90" fill="none" xmlns="http://www.w3.org/2000/svg">
<path d="M60.5863 15.1974L50.67 13.7305C50.3766 13.6718 50.0832 13.7892 49.9659 13.9065L45.7412 19.4223C45.4478 19.7743 45.3891 20.2438 45.5065 20.6545C45.6239 21.0653 45.2718 21.4173 44.8611 21.3587L41.3992 20.5958C40.8711 20.4785 40.2843 20.6545 39.9323 21.124L26.202 38.7275C25.9673 39.0795 25.4979 39.1969 25.0872 39.0209L19.865 36.6737C19.3956 36.439 18.8675 36.4977 18.4568 36.7911L15.8164 38.6101C15.4056 38.9035 14.8189 38.9622 14.3494 38.7275L13.0586 38.082C12.2371 37.6713 11.2396 38.1407 11.0049 39.0209L10.0661 43.187C9.83138 44.1845 10.2421 45.1821 11.1223 45.7102L13.1172 46.9424L19.513 50.8739L22.6228 52.8103C23.5029 53.3384 24.6178 53.221 25.3806 52.5755L30.6028 47.9986C31.0135 47.6466 31.6589 47.5292 32.1283 47.8226L33.7126 48.6441C34.2407 48.9375 34.8861 48.8201 35.2968 48.4094L37.9373 45.9449C38.348 45.5341 38.9934 45.4755 39.4629 45.7102L43.3942 47.5292C43.9809 47.8226 44.685 47.6466 45.0958 47.1185L46.9147 44.7713L60.7036 27.1091C61.3491 26.2876 60.9383 25.0554 59.8822 24.8207L56.831 24.1165C56.1856 23.9992 55.8922 23.1777 56.3616 22.7083L61.1144 16.7817C61.5838 16.0776 61.2904 15.3148 60.5863 15.1974Z" fill="#C4C4CC"/>
<path d="M15.1111 50.7565C14.8178 50.5805 14.5244 50.8739 14.6417 51.1673L16.1086 55.0401C16.226 55.3335 16.226 55.6268 16.1673 55.9202L14.8764 60.9666C14.8178 61.3186 14.9351 61.6707 15.1698 61.8467L18.8664 64.722C19.2185 64.9567 19.6879 64.9567 19.9813 64.6633L23.8539 61.26C24.0886 61.0839 24.382 60.9666 24.6167 60.9079L29.0174 60.4385C29.3108 60.3798 29.4281 59.969 29.1347 59.793L15.1111 50.7565Z" fill="#C4C4CC"/>
<path d="M61.3975 13.4626C61.6113 13.4952 61.7498 13.5613 61.9551 13.4934C62.8561 13.1958 63.3929 11.9405 63.8803 11.1263L65.6636 8.14666C65.9818 7.61495 66.2946 7.07572 66.6263 6.55231C67.3738 5.37283 68.6795 3.12514 68.3597 0.851294C68.3197 0.567214 68.1275 0.332155 67.8709 0.203861C67.7363 0.13654 67.5889 0.101607 67.4392 0.117896C66.6536 0.203406 64.53 0.609684 63.853 1.0159L57.2234 4.40345C57.0496 4.49227 56.8838 4.62225 56.7248 4.73547C56.432 4.94401 56.1459 5.15031 55.9396 5.44478L52.0625 10.9805C51.6037 11.6356 51.8209 12.1058 52.6201 12.1363C52.7726 12.1421 52.8042 12.1517 52.9551 12.1747L61.3975 13.4626Z" fill="#C4C4CC"/>
<path d="M13.8209 63.7832C13.5862 63.6071 13.2341 63.5485 12.9407 63.6658L9.83092 65.1914C9.65489 65.2501 9.53753 65.4262 9.42017 65.6022L2.78977 81.9735C2.78977 82.0322 2.78977 82.0321 2.78977 82.0908C2.84845 82.1495 2.90712 82.2082 3.02447 82.2082L4.55006 81.6214C4.60873 81.6214 4.6674 81.6214 4.72608 81.6214C4.78475 81.6801 4.84343 81.7974 4.78476 81.8561L0.031983 89.6603C-0.0853694 89.8364 0.149341 90.0124 0.266693 89.8364L17.4588 72.5849C17.6348 72.4089 17.6935 72.2329 17.7522 71.9982L18.1043 67.5386C18.1043 67.2452 17.9869 67.0105 17.8109 66.8344L13.8209 63.7832Z" fill="#C4C4CC"/>
</svg>
